<?xml version="1.0" encoding="UTF-8"?>
<!-- Created with Inkscape (http://www.inkscape.org/) -->
<svg width="512" height="512" version="1.1" viewBox="0 0 135.47 135.47" xmlns="http://www.w3.org/2000/svg">
   <style>
    @media (prefers-color-scheme: dark) {
      circle,g,path { fill: #f0f0f0 }
    .background{
    opacity:0;
    }
    }
    
  </style>
 <circle class="background" cx="68.792" cy="68.792" r="63.5" fill="#fff" fill-opacity=".26104" opacity=".87" stroke-width="3.731"/>
 <g transform="matrix(.7885 0 0 .7885 16.679 12.606)">
  <g transform="matrix(1.5077 0 0 1.3274 -35.026 -25.908)" stroke-width=".30253" aria-label="f">
   <path d="m50.912 76.952c0.70719-1.1166 1.4144-2.2891 2.1216-3.5173 0.70719-1.2655 1.7307-3.294 3.0707-6.0855 1.3399-2.7915 2.0099-4.392 2.0099-4.8014v-25.068c0-4.3548 1.433-8.2071 4.299-11.557 2.9032-3.3498 6.1972-5.0248 9.882-5.0248 4.3548 0 6.5322 2.0285 6.5322 6.0855 0 3.5732-1.005 7.7232-3.0149 12.45-2.0099 4.727-6.0483 11.892-12.115 21.495v23.337c1.7494-0.11166 3.3312-0.63275 4.7456-1.5633 1.4144-0.93051 17.892-10.535 20.646-14.518l1.7307 1.3958c-4.3176 7.1463-22.954 17.867-27.122 17.867v19.317c0 4.2804-1.1911 7.7046-3.5732 10.273-2.3449 2.6054-5.2667 3.9081-8.7654 3.9081-3.6848 0-6.5694-1.6005-8.6537-4.8014l4.5781-4.5223 0.89329 0.78163c-0.22332 0.70719-0.33498 1.2469-0.33498 1.6191 0 1.4144 0.44664 2.624 1.3399 3.629s2.0471 1.5074 3.4615 1.5074c3.6476 0 5.4714-3.7034 5.4714-11.11v-20.601c-1.861-0.29776-3.7593-1.1352-5.6947-2.5124 0.3722-1.6005 1.2097-3.201 2.5124-4.8014 1.0422 1.6749 2.103 2.7171 3.1823 3.1265v-14.795c-1.4888 3.6104-3.3498 6.9416-5.5831 9.9937zm12.785-21.495c7.0347-11.278 10.552-20.304 10.552-27.078 0-3.3871-1.2283-5.0806-3.6848-5.0806-1.8238 0-3.4243 0.96773-4.8014 2.9032-1.3772 1.8982-2.0657 4.4106-2.0657 7.5371z"/>
  </g>
  <path d="m84.844 68.034 14.45-3.4349 2.6095 1.8527-2.4043 15.298-3.5698-3.3819 1.1273-9.77-9.5821 2.2546z"/>
  <path d="m69.984 74.48 14.831 0.79719 1.9781 2.5158-6.6375 13.991-2.4661-4.2543 3.8476-9.0509-9.8283-0.55088z"/>
 </g>
</svg>
